<svg id="svg" version="1.1" xmlns="http://www.w3.org/2000/svg" xmlns:xlink="http://www.w3.org/1999/xlink" width="400" height="400" viewBox="0, 0, 400,400">
  <g id="svgg">
    <path id="path0" d="M210.000 13.257 C 210.000 13.446,208.841 13.600,207.424 13.600 C 206.007 13.600,204.736 13.780,204.600 14.000 C 204.464 14.220,203.654 14.400,202.800 14.400 C 201.946 14.400,201.136 14.580,201.000 14.800 C 200.864 15.020,200.054 15.200,199.200 15.200 C 198.346 15.200,197.536 15.380,197.400 15.600 C 197.264 15.820,196.803 16.000,196.376 16.000 C 195.949 16.000,195.600 16.143,195.600 16.317 C 195.600 16.492,194.475 16.881,193.100 17.182 C 191.725 17.483,190.510 17.835,190.400 17.964 C 189.999 18.436,188.395 19.200,187.805 19.200 C 187.472 19.200,187.200 19.380,187.200 19.600 C 187.200 19.820,186.840 20.000,186.400 20.000 C 185.960 20.000,185.600 20.180,185.600 20.400 C 185.600 20.620,185.240 20.800,184.800 20.800 C 184.360 20.800,184.000 20.980,184.000 21.200 C 184.000 21.420,183.717 21.600,183.371 21.600 C 183.026 21.600,182.471 21.872,182.139 22.204 C 181.807 22.536,181.370 22.705,181.168 22.580 C 180.965 22.455,180.800 22.543,180.800 22.776 C 180.800 23.009,180.564 23.200,180.275 23.200 C 179.987 23.200,179.385 23.541,178.938 23.957 C 178.491 24.374,177.557 25.009,176.862 25.368 C 176.168 25.727,175.600 26.196,175.600 26.410 C 175.600 26.625,175.229 26.800,174.776 26.800 C 174.323 26.800,174.064 26.980,174.200 27.200 C 174.336 27.420,174.239 27.600,173.984 27.600 C 173.729 27.600,173.022 28.134,172.413 28.786 C 171.804 29.438,171.192 29.858,171.053 29.719 C 170.914 29.580,170.800 29.687,170.800 29.957 C 170.800 30.227,170.620 30.336,170.400 30.200 C 170.180 30.064,170.000 30.221,170.000 30.549 C 170.000 30.878,169.685 31.252,169.300 31.381 C 168.915 31.511,168.150 32.225,167.600 32.969 C 167.050 33.713,166.510 34.273,166.400 34.214 C 166.290 34.154,165.789 34.532,165.286 35.053 C 164.783 35.574,164.469 36.000,164.587 36.000 C 164.705 36.000,164.082 36.651,163.202 37.446 C 160.117 40.233,156.800 43.638,156.800 44.017 C 156.800 44.228,156.632 44.400,156.427 44.400 C 155.918 44.400,143.274 57.141,143.530 57.396 C 143.642 57.508,143.539 57.600,143.302 57.600 C 142.856 57.600,139.586 60.749,137.300 63.381 C 136.585 64.204,136.000 64.742,136.000 64.577 C 136.000 64.412,135.640 64.693,135.200 65.200 C 134.760 65.707,134.400 66.436,134.400 66.820 C 134.400 67.580,151.240 84.000,152.019 84.000 C 152.513 84.000,154.782 81.628,154.794 81.100 C 154.797 80.935,155.001 80.800,155.246 80.800 C 155.491 80.800,156.346 80.043,157.146 79.117 C 159.117 76.837,162.069 74.000,162.472 74.000 C 162.652 74.000,162.800 73.742,162.800 73.427 C 162.800 73.112,163.160 72.740,163.600 72.600 C 164.040 72.460,164.400 72.088,164.400 71.773 C 164.400 71.458,164.535 71.197,164.700 71.194 C 165.244 71.182,167.585 68.918,167.323 68.656 C 167.182 68.515,167.367 68.400,167.733 68.400 C 168.100 68.400,168.400 68.100,168.400 67.733 C 168.400 67.367,168.515 67.182,168.656 67.323 C 168.918 67.585,171.182 65.244,171.194 64.700 C 171.197 64.535,171.458 64.400,171.773 64.400 C 172.088 64.400,172.460 64.040,172.600 63.600 C 172.740 63.160,173.112 62.800,173.427 62.800 C 173.742 62.800,174.000 62.644,174.000 62.453 C 174.000 62.262,175.260 60.835,176.800 59.283 C 178.340 57.731,179.600 56.550,179.600 56.659 C 179.600 56.768,179.870 56.587,180.200 56.257 C 180.530 55.927,180.800 55.464,180.800 55.229 C 180.800 54.993,180.961 54.800,181.157 54.800 C 181.354 54.800,183.121 53.202,185.085 51.250 C 187.048 49.297,189.048 47.575,189.528 47.423 C 190.007 47.271,190.400 46.978,190.400 46.773 C 190.400 46.568,190.681 46.400,191.024 46.400 C 191.367 46.400,191.536 46.220,191.400 46.000 C 191.264 45.780,191.433 45.600,191.776 45.600 C 192.119 45.600,192.400 45.420,192.400 45.200 C 192.400 44.980,192.771 44.800,193.224 44.800 C 193.677 44.800,193.936 44.620,193.800 44.400 C 193.664 44.180,193.833 44.000,194.176 44.000 C 194.519 44.000,194.800 43.820,194.800 43.600 C 194.800 43.380,195.160 43.200,195.600 43.200 C 196.040 43.200,196.400 43.020,196.400 42.800 C 196.400 42.580,196.739 42.400,197.154 42.400 C 197.569 42.400,198.424 42.131,199.054 41.802 C 199.684 41.474,200.504 41.204,200.876 41.202 C 201.248 41.201,201.664 41.020,201.800 40.800 C 201.936 40.580,202.476 40.400,203.000 40.400 C 203.524 40.400,204.064 40.220,204.200 40.000 C 204.336 39.780,204.898 39.600,205.450 39.600 C 206.001 39.600,206.771 39.430,207.159 39.222 C 207.548 39.014,208.716 38.800,209.756 38.746 C 210.796 38.692,211.737 38.502,211.847 38.324 C 212.123 37.877,222.549 37.913,223.020 38.363 C 223.229 38.563,224.300 38.820,225.400 38.935 C 228.066 39.212,230.110 39.633,230.600 40.004 C 231.114 40.394,233.648 40.979,234.300 40.858 C 234.575 40.807,234.800 40.953,234.800 41.182 C 234.800 41.412,235.160 41.600,235.600 41.600 C 236.040 41.600,236.400 41.780,236.400 42.000 C 236.400 42.220,236.760 42.400,237.200 42.400 C 237.640 42.400,238.000 42.580,238.000 42.800 C 238.000 43.020,238.360 43.200,238.800 43.200 C 239.240 43.200,239.600 43.380,239.600 43.600 C 239.600 43.820,239.868 44.000,240.195 44.000 C 240.743 44.000,241.678 44.630,243.016 45.900 C 243.306 46.175,243.670 46.400,243.825 46.400 C 243.979 46.400,244.397 46.716,244.753 47.103 C 245.109 47.489,245.892 48.058,246.493 48.367 C 247.095 48.675,247.692 49.259,247.820 49.664 C 247.949 50.069,248.318 50.400,248.640 50.400 C 248.962 50.400,249.364 50.773,249.533 51.230 C 249.701 51.686,249.958 52.001,250.103 51.930 C 250.248 51.858,250.797 52.383,251.322 53.095 C 251.848 53.807,252.395 54.272,252.539 54.128 C 252.682 53.984,252.800 54.167,252.800 54.533 C 252.800 54.900,252.980 55.200,253.200 55.200 C 253.420 55.200,253.600 55.369,253.600 55.575 C 253.600 55.782,254.140 56.542,254.800 57.264 C 255.460 57.987,256.000 58.808,256.000 59.089 C 256.000 59.370,256.159 59.600,256.353 59.600 C 256.548 59.600,256.807 59.915,256.929 60.300 C 257.214 61.198,258.495 63.323,258.951 63.655 C 259.144 63.796,259.186 64.100,259.043 64.331 C 258.900 64.562,259.073 64.913,259.427 65.111 C 259.782 65.310,260.041 65.546,260.003 65.636 C 259.890 65.906,260.432 68.114,260.926 69.400 C 261.180 70.060,261.334 70.838,261.269 71.130 C 261.204 71.421,261.325 71.871,261.537 72.130 C 261.749 72.388,261.984 73.140,262.060 73.800 C 262.135 74.460,262.318 75.091,262.466 75.203 C 262.613 75.315,262.817 76.782,262.919 78.464 C 263.021 80.146,263.227 81.719,263.375 81.960 C 263.699 82.484,263.511 86.792,263.174 86.584 C 263.045 86.504,262.903 87.820,262.860 89.509 C 262.816 91.198,262.605 92.755,262.390 92.970 C 262.176 93.184,262.000 93.954,262.000 94.680 C 262.000 95.406,261.809 96.000,261.576 96.000 C 261.343 96.000,261.244 96.148,261.356 96.329 C 261.468 96.509,261.295 97.166,260.972 97.788 C 260.650 98.410,260.480 99.013,260.594 99.128 C 260.709 99.242,260.523 99.764,260.180 100.286 C 259.830 100.821,259.667 101.582,259.809 102.028 C 259.977 102.557,259.890 102.784,259.548 102.710 C 259.267 102.650,259.013 102.780,258.984 103.000 C 258.835 104.129,256.792 108.400,256.401 108.400 C 256.251 108.400,255.906 108.887,255.635 109.483 C 255.364 110.078,254.795 110.808,254.371 111.105 C 253.947 111.402,253.600 111.905,253.600 112.223 C 253.600 112.540,253.450 112.800,253.268 112.800 C 253.085 112.800,252.694 113.250,252.400 113.799 C 252.106 114.349,251.787 114.720,251.690 114.624 C 251.467 114.401,249.600 116.252,249.600 116.696 C 249.600 116.878,248.925 117.589,248.100 118.274 C 245.248 120.644,244.816 121.082,245.074 121.341 C 245.217 121.483,245.078 121.602,244.767 121.604 C 244.455 121.606,243.750 122.177,243.200 122.873 C 241.607 124.889,239.271 127.138,239.025 126.892 C 238.901 126.768,238.800 126.997,238.800 127.400 C 238.800 127.803,238.689 128.022,238.552 127.886 C 238.242 127.576,237.200 128.585,237.200 129.195 C 237.200 129.444,237.020 129.536,236.800 129.400 C 236.580 129.264,236.398 129.298,236.395 129.476 C 236.387 129.974,233.287 133.200,232.816 133.200 C 232.587 133.200,232.400 133.353,232.400 133.541 C 232.400 134.039,230.066 136.400,229.573 136.400 C 229.342 136.400,229.264 136.580,229.400 136.800 C 229.536 137.020,229.448 137.200,229.205 137.200 C 228.962 137.200,228.314 137.650,227.764 138.200 C 227.214 138.750,226.855 139.200,226.966 139.200 C 227.254 139.200,224.379 142.010,222.873 143.200 C 222.177 143.750,221.606 144.455,221.604 144.767 C 221.602 145.078,221.489 145.222,221.352 145.086 C 221.108 144.841,220.000 145.730,220.000 146.171 C 220.000 146.590,213.607 152.800,213.176 152.800 C 212.943 152.800,212.864 152.980,213.000 153.200 C 213.136 153.420,213.044 153.600,212.795 153.600 C 212.185 153.600,211.176 154.642,211.486 154.952 C 211.622 155.089,211.433 155.200,211.067 155.200 C 210.700 155.200,210.400 155.376,210.400 155.591 C 210.400 156.101,206.101 160.400,205.591 160.400 C 205.376 160.400,205.200 160.700,205.200 161.067 C 205.200 161.433,205.089 161.622,204.952 161.486 C 204.642 161.176,203.600 162.185,203.600 162.795 C 203.600 163.044,203.420 163.136,203.200 163.000 C 202.980 162.864,202.800 162.943,202.800 163.176 C 202.800 163.607,196.590 170.000,196.171 170.000 C 195.730 170.000,194.841 171.108,195.086 171.352 C 195.222 171.489,195.078 171.602,194.767 171.604 C 194.455 171.606,193.750 172.177,193.200 172.873 C 192.010 174.379,189.200 177.254,189.200 176.966 C 189.200 176.855,188.750 177.214,188.200 177.764 C 187.650 178.314,187.200 178.962,187.200 179.205 C 187.200 179.448,187.020 179.536,186.800 179.400 C 186.580 179.264,186.400 179.333,186.400 179.552 C 186.400 180.073,180.073 186.400,179.552 186.400 C 179.333 186.400,179.264 186.580,179.400 186.800 C 179.536 187.020,179.448 187.200,179.205 187.200 C 178.962 187.200,178.314 187.650,177.764 188.200 C 177.214 188.750,176.902 189.200,177.071 189.200 C 177.240 189.200,176.978 189.480,176.489 189.823 C 176.000 190.165,175.600 190.735,175.600 191.089 C 175.600 191.444,175.489 191.622,175.352 191.486 C 175.216 191.350,174.888 191.455,174.623 191.719 C 174.358 191.984,173.571 192.650,172.874 193.200 C 172.177 193.750,171.606 194.455,171.604 194.767 C 171.602 195.078,171.489 195.222,171.352 195.086 C 171.093 194.827,170.000 195.742,170.000 196.217 C 170.000 196.558,162.932 203.600,162.590 203.600 C 162.135 203.600,161.235 204.702,161.486 204.952 C 161.622 205.089,161.433 205.200,161.067 205.200 C 160.700 205.200,160.400 205.360,160.400 205.557 C 160.400 206.021,156.021 210.400,155.557 210.400 C 155.360 210.400,155.200 210.700,155.200 211.067 C 155.200 211.433,155.089 211.622,154.952 211.486 C 154.702 211.235,153.600 212.135,153.600 212.590 C 153.600 212.932,146.558 220.000,146.217 220.000 C 145.742 220.000,144.827 221.093,145.086 221.352 C 145.222 221.489,145.078 221.602,144.767 221.604 C 144.455 221.606,143.750 222.177,143.200 222.874 C 142.650 223.571,141.984 224.358,141.719 224.623 C 141.455 224.888,141.350 225.216,141.486 225.352 C 141.622 225.489,141.444 225.600,141.089 225.600 C 140.735 225.600,140.165 226.000,139.823 226.489 C 139.480 226.978,139.200 227.235,139.200 227.060 C 139.200 226.886,138.930 227.013,138.600 227.343 C 138.270 227.673,138.000 228.146,138.000 228.395 C 138.000 228.644,137.820 228.736,137.600 228.600 C 137.380 228.464,137.200 228.552,137.200 228.796 C 137.200 229.374,129.374 237.200,128.796 237.200 C 128.552 237.200,128.464 237.380,128.600 237.600 C 128.736 237.820,128.644 238.000,128.395 238.000 C 128.146 238.000,127.673 238.270,127.343 238.600 C 127.013 238.930,126.886 239.200,127.060 239.200 C 127.235 239.200,126.978 239.480,126.489 239.823 C 126.000 240.165,125.600 240.735,125.600 241.089 C 125.600 241.444,125.489 241.622,125.352 241.486 C 125.216 241.350,124.888 241.455,124.623 241.719 C 124.358 241.984,123.571 242.650,122.874 243.200 C 122.177 243.750,121.606 244.455,121.604 244.767 C 121.602 245.078,121.489 245.222,121.352 245.086 C 121.093 244.827,120.000 245.742,120.000 246.217 C 120.000 246.558,112.932 253.600,112.590 253.600 C 112.135 253.600,111.235 254.702,111.486 254.952 C 111.622 255.089,111.433 255.200,111.067 255.200 C 110.700 255.200,110.400 255.360,110.400 255.557 C 110.400 256.021,106.021 260.400,105.557 260.400 C 105.360 260.400,105.200 260.700,105.200 261.067 C 105.200 261.433,105.089 261.622,104.952 261.486 C 104.680 261.214,103.607 262.146,103.588 262.671 C 103.581 262.852,103.039 263.450,102.383 264.000 C 99.965 266.027,98.878 267.144,99.103 267.369 C 99.229 267.496,99.023 267.600,98.643 267.600 C 98.263 267.600,98.057 267.769,98.185 267.975 C 98.312 268.182,98.187 268.497,97.906 268.675 C 97.625 268.854,96.914 269.630,96.326 270.400 C 95.738 271.170,94.798 272.340,94.236 273.000 C 93.675 273.660,93.028 274.421,92.799 274.692 C 92.570 274.963,92.385 275.323,92.387 275.492 C 92.395 276.201,91.919 277.200,91.573 277.200 C 91.368 277.200,91.200 277.481,91.200 277.824 C 91.200 278.167,91.020 278.336,90.800 278.200 C 90.580 278.064,90.400 278.233,90.400 278.576 C 90.400 278.919,90.220 279.200,90.000 279.200 C 89.780 279.200,89.600 279.560,89.600 280.000 C 89.600 280.440,89.441 280.800,89.247 280.800 C 89.052 280.800,88.790 281.115,88.664 281.500 C 88.538 281.885,87.977 282.970,87.418 283.911 C 86.858 284.852,86.400 285.977,86.400 286.411 C 86.400 286.845,86.220 287.200,86.000 287.200 C 85.780 287.200,85.600 287.560,85.600 288.000 C 85.600 288.440,85.420 288.800,85.200 288.800 C 84.980 288.800,84.800 289.216,84.800 289.725 C 84.800 290.234,84.440 291.395,84.000 292.306 C 83.560 293.216,83.200 294.319,83.200 294.757 C 83.200 295.195,83.040 295.652,82.844 295.773 C 82.508 295.980,82.273 296.991,81.743 300.500 C 81.618 301.325,81.386 302.000,81.226 302.000 C 81.067 302.000,80.895 303.030,80.844 304.288 C 80.793 305.547,80.591 306.769,80.395 307.006 C 79.902 307.600,79.920 324.800,80.414 324.800 C 80.626 324.800,80.800 325.970,80.800 327.400 C 80.800 328.867,80.974 330.000,81.200 330.000 C 81.420 330.000,81.600 330.799,81.600 331.776 C 81.600 332.753,81.780 333.664,82.000 333.800 C 82.220 333.936,82.400 334.487,82.400 335.024 C 82.400 335.561,82.580 336.000,82.800 336.000 C 83.020 336.000,83.200 336.439,83.200 336.976 C 83.200 337.513,83.380 338.064,83.600 338.200 C 83.820 338.336,84.000 338.977,84.000 339.624 C 84.000 340.271,84.180 340.800,84.400 340.800 C 84.620 340.800,84.800 341.239,84.800 341.776 C 84.800 342.313,84.980 342.864,85.200 343.000 C 85.420 343.136,85.600 343.597,85.600 344.024 C 85.600 344.451,85.780 344.800,86.000 344.800 C 86.220 344.800,86.400 345.160,86.400 345.600 C 86.400 346.040,86.580 346.400,86.800 346.400 C 87.020 346.400,87.200 346.634,87.200 346.920 C 87.200 347.656,88.141 349.593,88.500 349.597 C 88.665 349.599,88.800 349.960,88.800 350.400 C 88.800 350.840,88.946 351.200,89.125 351.200 C 89.304 351.200,89.698 351.830,90.000 352.600 C 90.302 353.370,90.696 354.000,90.875 354.000 C 91.054 354.000,91.200 354.204,91.200 354.453 C 91.200 354.702,91.572 355.229,92.026 355.623 C 92.481 356.017,92.807 356.398,92.752 356.470 C 92.623 356.635,94.008 358.778,94.800 359.640 C 97.528 362.609,98.000 363.237,98.000 363.905 C 98.000 364.073,98.405 364.395,98.900 364.620 C 99.395 364.845,99.755 365.248,99.700 365.515 C 99.645 365.782,99.778 366.000,99.995 366.000 C 100.650 366.000,102.000 367.335,102.006 367.989 C 102.011 368.493,102.074 368.503,102.362 368.047 C 102.637 367.613,102.771 367.677,102.983 368.347 C 103.132 368.816,103.395 369.200,103.568 369.200 C 103.740 369.200,104.412 369.707,105.060 370.326 C 105.708 370.946,106.545 371.570,106.919 371.714 C 107.294 371.857,107.600 372.171,107.600 372.411 C 107.600 372.651,107.769 372.743,107.975 372.615 C 108.182 372.488,108.497 372.624,108.675 372.919 C 109.083 373.593,112.597 376.000,113.172 376.000 C 113.407 376.000,113.600 376.180,113.600 376.400 C 113.600 376.620,113.881 376.800,114.224 376.800 C 114.567 376.800,114.736 376.980,114.600 377.200 C 114.464 377.420,114.598 377.600,114.897 377.600 C 115.651 377.600,117.593 378.535,117.597 378.900 C 117.599 379.065,117.960 379.200,118.400 379.200 C 118.840 379.200,119.200 379.380,119.200 379.600 C 119.200 379.820,119.560 380.000,120.000 380.000 C 120.440 380.000,120.800 380.180,120.800 380.400 C 120.800 380.620,121.065 380.800,121.388 380.800 C 121.711 380.800,122.617 381.160,123.400 381.600 C 124.183 382.040,125.279 382.400,125.836 382.400 C 126.532 382.400,126.757 382.556,126.559 382.900 C 126.401 383.175,126.411 383.275,126.581 383.121 C 126.751 382.968,127.545 383.101,128.345 383.416 C 129.145 383.732,130.200 384.047,130.690 384.118 C 131.179 384.188,131.704 384.371,131.856 384.523 C 132.009 384.675,132.633 384.800,133.243 384.800 C 133.853 384.800,134.464 384.980,134.600 385.200 C 134.736 385.420,135.546 385.600,136.400 385.600 C 137.254 385.600,138.064 385.780,138.200 386.000 C 138.336 386.220,139.607 386.400,141.024 386.400 C 142.598 386.400,143.600 386.568,143.600 386.831 C 143.600 387.598,161.498 386.851,163.400 386.006 C 163.840 385.810,164.920 385.550,165.800 385.429 C 169.970 384.854,170.769 384.673,170.568 384.349 C 170.450 384.157,170.756 384.000,171.248 384.000 C 172.189 384.000,174.516 383.346,175.695 382.751 C 176.077 382.558,176.662 382.400,176.995 382.400 C 177.328 382.400,177.600 382.220,177.600 382.000 C 177.600 381.780,178.039 381.600,178.576 381.600 C 179.113 381.600,179.664 381.420,179.800 381.200 C 179.936 380.980,180.397 380.800,180.824 380.800 C 181.251 380.800,181.600 380.620,181.600 380.400 C 181.600 380.180,181.971 380.000,182.424 380.000 C 182.877 380.000,183.136 379.820,183.000 379.600 C 182.859 379.372,183.204 379.200,183.800 379.200 C 184.376 379.200,184.755 379.050,184.642 378.868 C 184.529 378.685,185.058 378.291,185.818 377.993 C 186.578 377.695,187.200 377.304,187.200 377.125 C 187.200 376.946,187.470 376.800,187.800 376.800 C 188.130 376.800,188.400 376.620,188.400 376.400 C 188.400 376.180,188.670 376.000,189.000 376.000 C 189.330 376.000,189.600 375.820,189.600 375.600 C 189.600 375.380,189.937 375.200,190.350 375.200 C 190.762 375.200,191.786 374.571,192.624 373.803 C 193.463 373.035,194.476 372.303,194.875 372.176 C 195.274 372.050,195.600 371.768,195.600 371.549 C 195.600 371.331,195.808 371.281,196.062 371.438 C 196.340 371.610,196.415 371.548,196.251 371.282 C 196.100 371.039,196.333 370.650,196.768 370.417 C 197.779 369.876,206.806 360.939,206.575 360.708 C 206.479 360.613,206.806 360.309,207.301 360.033 C 207.795 359.758,208.785 358.808,209.500 357.923 C 210.215 357.038,210.800 356.430,210.800 356.572 C 210.800 356.715,212.420 355.197,214.400 353.200 C 218.605 348.958,218.480 349.374,216.088 347.600 C 212.928 345.256,206.038 338.550,202.022 333.907 C 200.904 332.616,198.341 331.733,199.052 332.885 C 199.160 333.058,198.922 333.203,198.524 333.206 C 197.910 333.211,197.891 333.271,198.400 333.600 C 198.908 333.928,198.888 333.989,198.271 333.994 C 197.456 334.001,196.400 334.904,196.400 335.595 C 196.400 335.844,196.220 335.936,196.000 335.800 C 195.780 335.664,195.600 335.708,195.600 335.898 C 195.600 336.793,187.372 345.111,186.700 344.896 C 186.535 344.843,186.421 344.935,186.447 345.100 C 186.588 345.990,186.313 346.400,185.576 346.400 C 185.123 346.400,184.864 346.580,185.000 346.800 C 185.136 347.020,184.967 347.200,184.624 347.200 C 184.281 347.200,184.000 347.440,184.000 347.734 C 184.000 348.252,181.866 350.400,181.350 350.400 C 181.209 350.400,180.803 350.724,180.447 351.119 C 180.091 351.514,179.170 352.271,178.400 352.800 C 177.630 353.329,176.709 354.086,176.353 354.481 C 175.997 354.876,175.502 355.200,175.253 355.200 C 175.004 355.200,174.800 355.380,174.800 355.600 C 174.800 355.820,174.440 356.000,174.000 356.000 C 173.560 356.000,173.199 356.135,173.197 356.300 C 173.193 356.659,171.256 357.600,170.520 357.600 C 170.234 357.600,170.000 357.759,170.000 357.953 C 170.000 358.303,168.763 358.837,167.600 358.990 C 166.144 359.182,164.366 359.732,164.168 360.052 C 164.050 360.243,163.369 360.400,162.656 360.400 C 161.943 360.400,161.167 360.593,160.932 360.828 C 160.696 361.064,159.670 361.280,158.652 361.310 C 157.633 361.339,156.800 361.506,156.800 361.681 C 156.800 361.857,154.280 362.000,151.200 362.000 C 148.120 362.000,145.600 361.849,145.600 361.665 C 145.600 361.481,144.835 361.296,143.900 361.255 C 141.847 361.164,141.127 361.053,140.600 360.741 C 140.201 360.505,137.398 359.863,136.554 359.814 C 136.309 359.800,135.822 359.550,135.472 359.260 C 135.122 358.969,134.660 358.840,134.445 358.972 C 134.231 359.105,133.942 359.030,133.804 358.807 C 133.666 358.583,133.103 358.400,132.553 358.400 C 131.988 358.400,131.660 358.226,131.800 358.000 C 132.008 357.663,131.022 357.397,130.691 357.700 C 130.630 357.755,130.147 357.395,129.615 356.900 C 129.084 356.405,128.413 356.000,128.125 356.000 C 127.836 356.000,127.600 355.820,127.600 355.600 C 127.600 355.380,127.240 355.200,126.800 355.200 C 126.360 355.200,126.000 355.062,126.000 354.893 C 126.000 354.724,125.550 354.312,125.000 353.978 C 122.895 352.702,117.079 347.327,116.690 346.300 C 116.544 345.915,116.139 345.600,115.789 345.600 C 115.439 345.600,115.264 345.420,115.400 345.200 C 115.536 344.980,115.471 344.800,115.256 344.800 C 115.041 344.800,114.473 344.165,113.993 343.389 C 113.514 342.614,112.913 341.759,112.659 341.489 C 112.404 341.220,111.763 340.145,111.235 339.100 C 110.706 338.055,110.123 337.200,109.937 337.200 C 109.752 337.200,109.600 336.834,109.600 336.386 C 109.600 335.938,109.309 335.128,108.954 334.586 C 108.599 334.044,108.441 333.600,108.603 333.600 C 108.765 333.600,108.697 333.358,108.452 333.063 C 108.207 332.768,108.125 332.408,108.270 332.263 C 108.415 332.118,108.323 332.000,108.067 332.000 C 107.810 332.000,107.600 331.475,107.600 330.833 C 107.600 330.192,107.409 329.603,107.176 329.525 C 106.943 329.448,106.735 328.796,106.715 328.078 C 106.694 327.359,106.525 326.677,106.339 326.562 C 106.152 326.447,106.000 325.564,106.000 324.600 C 106.000 323.636,105.820 322.736,105.600 322.600 C 105.119 322.303,105.046 309.742,105.524 309.447 C 105.702 309.337,105.893 308.385,105.947 307.333 C 106.002 306.280,106.256 305.289,106.512 305.131 C 106.767 304.973,106.857 304.723,106.710 304.576 C 106.457 304.324,107.235 301.801,108.023 300.317 C 108.222 299.942,108.501 298.907,108.644 298.017 C 108.786 297.128,109.059 296.400,109.251 296.400 C 109.443 296.400,109.600 296.040,109.600 295.600 C 109.600 295.160,109.760 294.800,109.956 294.800 C 110.152 294.800,110.701 294.035,111.177 293.100 C 112.639 290.227,113.061 289.594,113.336 289.869 C 113.481 290.014,113.600 289.917,113.600 289.652 C 113.600 289.388,114.005 288.722,114.500 288.172 C 116.522 285.928,116.800 285.591,116.800 285.392 C 116.800 285.138,122.341 279.358,126.322 275.461 C 127.929 273.887,131.979 269.835,135.322 266.455 C 138.665 263.075,142.727 259.025,144.348 257.455 C 148.117 253.805,153.805 248.117,157.455 244.348 C 159.025 242.727,163.075 238.665,166.455 235.322 C 169.835 231.979,173.888 227.929,175.463 226.322 C 177.038 224.715,180.188 221.587,182.463 219.371 C 184.738 217.155,188.094 213.780,189.921 211.871 C 191.748 209.962,193.413 208.400,193.621 208.400 C 193.829 208.400,194.000 208.119,194.000 207.776 C 194.000 207.433,194.135 207.218,194.300 207.299 C 194.687 207.487,207.572 194.505,207.284 194.217 C 207.164 194.098,207.355 194.000,207.706 194.000 C 208.058 194.000,208.448 193.680,208.572 193.289 C 208.696 192.898,209.173 192.313,209.633 191.989 C 211.002 191.024,223.600 178.384,223.600 177.976 C 223.600 177.769,223.870 177.600,224.200 177.600 C 224.530 177.600,224.800 177.428,224.800 177.218 C 224.800 176.722,226.722 174.800,227.218 174.800 C 227.428 174.800,227.600 174.530,227.600 174.200 C 227.600 173.870,227.769 173.600,227.976 173.600 C 228.384 173.600,241.024 161.002,241.989 159.633 C 242.313 159.173,242.898 158.696,243.289 158.572 C 243.680 158.448,244.000 158.058,244.000 157.706 C 244.000 157.355,244.098 157.164,244.217 157.284 C 244.505 157.572,257.487 144.687,257.299 144.300 C 257.218 144.135,257.421 144.000,257.749 144.000 C 258.078 144.000,258.448 143.680,258.572 143.289 C 258.696 142.898,259.170 142.313,259.626 141.989 C 261.155 140.902,271.517 130.450,271.290 130.224 C 271.167 130.101,271.377 130.000,271.757 130.000 C 272.137 130.000,272.336 129.820,272.200 129.600 C 272.064 129.380,272.154 129.200,272.400 129.200 C 272.646 129.200,272.750 129.043,272.632 128.851 C 272.513 128.660,272.966 128.047,273.638 127.491 C 274.310 126.934,274.897 126.224,274.942 125.914 C 275.015 125.421,275.938 124.025,277.176 122.538 C 277.387 122.285,277.949 121.250,278.424 120.238 C 278.899 119.227,279.448 118.400,279.644 118.400 C 279.840 118.400,280.000 118.040,280.000 117.600 C 280.000 117.160,280.180 116.800,280.400 116.800 C 280.620 116.800,280.800 116.440,280.800 116.000 C 280.800 115.560,280.980 115.200,281.200 115.200 C 281.420 115.200,281.600 114.966,281.600 114.680 C 281.600 113.944,282.541 112.007,282.900 112.003 C 283.065 112.001,283.200 111.561,283.200 111.024 C 283.200 110.487,283.380 109.936,283.600 109.800 C 283.820 109.664,284.000 109.103,284.000 108.553 C 284.000 108.003,284.142 107.640,284.315 107.748 C 284.488 107.855,284.670 107.460,284.719 106.871 C 284.767 106.282,284.985 105.740,285.203 105.667 C 285.422 105.593,285.600 104.929,285.600 104.190 C 285.600 103.452,285.780 102.736,286.000 102.600 C 286.220 102.464,286.400 101.654,286.400 100.800 C 286.400 99.946,286.580 99.136,286.800 99.000 C 287.020 98.864,287.200 98.054,287.200 97.200 C 287.200 96.346,287.338 95.562,287.507 95.457 C 287.676 95.353,287.867 93.592,287.932 91.544 C 287.999 89.447,288.258 87.565,288.525 87.234 C 288.907 86.761,288.890 86.713,288.438 86.985 C 288.020 87.237,287.966 87.180,288.225 86.762 C 288.658 86.064,288.745 81.079,288.330 80.784 C 288.162 80.666,288.001 78.866,287.970 76.784 C 287.940 74.703,287.774 72.820,287.602 72.600 C 287.431 72.380,287.187 71.480,287.060 70.600 C 286.566 67.158,286.298 65.984,285.956 65.773 C 285.760 65.652,285.600 64.954,285.600 64.222 C 285.600 63.490,285.339 62.389,285.020 61.774 C 284.702 61.160,284.550 60.482,284.682 60.267 C 284.816 60.050,284.718 60.004,284.462 60.162 C 284.168 60.343,284.000 60.139,284.000 59.604 C 284.000 59.140,283.737 58.252,283.416 57.631 C 283.095 57.010,282.945 56.389,283.083 56.251 C 283.221 56.113,283.123 56.000,282.867 56.000 C 282.610 56.000,282.400 55.640,282.400 55.200 C 282.400 54.760,282.220 54.400,282.000 54.400 C 281.780 54.400,281.600 54.040,281.600 53.600 C 281.600 53.160,281.420 52.800,281.200 52.800 C 280.980 52.800,280.800 52.440,280.800 52.000 C 280.800 51.560,280.662 51.200,280.494 51.200 C 280.326 51.200,279.875 50.525,279.492 49.700 C 278.314 47.162,277.324 45.609,277.056 45.877 C 276.915 46.018,276.800 45.643,276.800 45.043 C 276.800 44.418,276.629 44.058,276.400 44.200 C 276.180 44.336,276.000 44.167,276.000 43.824 C 276.000 43.481,275.820 43.200,275.600 43.200 C 275.380 43.200,275.200 42.930,275.200 42.600 C 275.200 42.270,274.990 42.000,274.733 42.000 C 274.477 42.000,274.388 41.879,274.537 41.730 C 274.685 41.582,274.340 41.154,273.770 40.780 C 273.200 40.407,272.728 39.943,272.721 39.750 C 272.696 39.085,270.597 36.438,269.714 35.960 C 269.226 35.696,268.881 35.372,268.946 35.240 C 269.011 35.108,267.744 33.708,266.132 32.128 C 264.519 30.549,263.200 29.334,263.200 29.428 C 263.200 29.523,262.885 29.325,262.500 28.989 C 262.115 28.653,261.080 27.751,260.200 26.985 C 259.320 26.218,258.105 25.369,257.500 25.098 C 256.895 24.827,256.400 24.469,256.400 24.302 C 256.400 24.136,256.029 24.000,255.576 24.000 C 255.123 24.000,254.864 23.820,255.000 23.600 C 255.136 23.380,254.877 23.200,254.424 23.200 C 253.971 23.200,253.600 23.020,253.600 22.800 C 253.600 22.580,253.330 22.400,253.000 22.400 C 252.670 22.400,252.400 22.220,252.400 22.000 C 252.400 21.780,252.074 21.600,251.675 21.600 C 251.277 21.600,250.564 21.240,250.092 20.800 C 249.620 20.360,248.776 20.000,248.217 20.000 C 247.658 20.000,247.199 19.865,247.197 19.700 C 247.193 19.341,245.256 18.400,244.520 18.400 C 244.234 18.400,244.000 18.220,244.000 18.000 C 244.000 17.780,243.638 17.600,243.195 17.600 C 242.752 17.600,241.987 17.392,241.495 17.138 C 239.573 16.144,239.184 16.000,238.424 16.000 C 237.992 16.000,237.224 15.839,236.719 15.642 C 235.206 15.051,232.694 14.429,231.142 14.259 C 230.340 14.171,229.520 13.998,229.319 13.873 C 229.117 13.749,227.929 13.606,226.676 13.555 C 225.424 13.505,224.400 13.338,224.400 13.185 C 224.400 13.033,221.160 12.909,217.200 12.911 C 213.240 12.912,210.000 13.068,210.000 13.257 M15.900 151.513 C 1.864 165.553,-0.000 167.562,0.000 168.648 C 0.000 169.905,0.456 170.425,7.127 176.775 C 8.296 177.889,9.153 178.800,9.030 178.800 C 8.816 178.800,10.350 180.326,11.870 181.624 C 12.271 181.966,13.241 182.986,14.024 183.888 C 15.365 185.435,15.931 185.760,17.085 185.647 C 18.072 185.551,49.600 153.566,49.600 152.662 C 49.600 151.507,33.742 135.598,32.596 135.604 C 32.084 135.606,26.136 141.273,15.900 151.513 M74.600 177.600 C 75.683 178.700,76.660 179.600,76.770 179.600 C 76.880 179.600,76.083 178.700,75.000 177.600 C 73.917 176.500,72.940 175.600,72.830 175.600 C 72.720 175.600,73.517 176.500,74.600 177.600 " stroke="none" fill="#d3ebfb" fill-rule="evenodd"></path><path id="path1" d="M95.800 48.400 C 95.664 48.620,94.753 48.800,93.776 48.800 C 92.799 48.800,92.000 48.980,92.000 49.200 C 92.000 49.420,91.460 49.600,90.800 49.600 C 90.140 49.600,89.600 49.780,89.600 50.000 C 89.600 50.220,89.060 50.400,88.400 50.400 C 87.740 50.400,87.200 50.580,87.200 50.800 C 87.200 51.020,86.840 51.200,86.400 51.200 C 85.960 51.200,85.600 51.380,85.600 51.600 C 85.600 51.820,85.240 52.000,84.800 52.000 C 84.360 52.000,84.000 52.180,84.000 52.400 C 84.000 52.620,83.640 52.800,83.200 52.800 C 82.760 52.800,82.400 52.980,82.400 53.200 C 82.400 53.420,82.157 53.600,81.859 53.600 C 81.562 53.600,80.754 54.140,80.063 54.800 C 79.372 55.460,78.705 56.000,78.580 56.000 C 78.146 56.000,74.548 59.520,54.152 79.900 C 42.868 91.175,33.441 100.400,33.202 100.400 C 32.964 100.400,29.248 96.890,24.944 92.600 C 20.641 88.310,16.965 84.800,16.776 84.800 C 15.700 84.800,0.000 101.251,0.000 102.378 C 0.000 103.724,31.397 135.600,32.723 135.600 C 33.653 135.600,49.600 151.607,49.600 152.541 C 49.600 152.945,51.191 154.833,53.136 156.738 C 55.081 158.642,58.476 162.090,60.681 164.400 C 62.885 166.710,65.029 168.657,65.445 168.728 C 66.406 168.890,82.800 185.191,82.800 185.985 C 82.800 186.766,115.209 219.200,115.990 219.200 C 117.017 219.200,133.200 202.743,133.200 201.699 C 133.200 201.051,130.958 198.552,125.392 192.997 L 117.585 185.205 121.397 181.303 C 123.495 179.156,125.727 176.884,126.358 176.253 C 126.990 175.622,130.656 171.956,134.506 168.106 C 138.356 164.256,142.046 160.566,142.706 159.906 C 143.366 159.246,147.212 155.412,151.253 151.386 C 155.294 147.361,159.050 143.516,159.600 142.843 C 160.150 142.170,160.886 141.522,161.236 141.403 C 161.586 141.284,162.125 140.695,162.433 140.093 C 162.742 139.492,163.267 138.730,163.600 138.400 C 163.933 138.070,164.460 137.305,164.770 136.700 C 165.081 136.095,165.485 135.600,165.668 135.600 C 165.850 135.600,166.000 135.240,166.000 134.800 C 166.000 134.360,166.180 134.000,166.400 134.000 C 166.620 134.000,166.800 133.640,166.800 133.200 C 166.800 132.760,166.980 132.400,167.200 132.400 C 167.420 132.400,167.600 132.040,167.600 131.600 C 167.600 131.160,167.780 130.800,168.000 130.800 C 168.220 130.800,168.400 130.260,168.400 129.600 C 168.400 128.940,168.580 128.400,168.800 128.400 C 169.020 128.400,169.200 127.680,169.200 126.800 C 169.200 125.920,169.380 125.200,169.600 125.200 C 169.831 125.200,170.000 123.941,170.000 122.224 C 170.000 120.587,170.180 119.136,170.400 119.000 C 170.921 118.678,170.921 115.322,170.400 115.000 C 170.180 114.864,170.000 113.514,170.000 112.000 C 170.000 110.486,169.820 109.136,169.600 109.000 C 169.380 108.864,169.200 108.133,169.200 107.376 C 169.200 106.619,169.020 106.000,168.800 106.000 C 168.580 106.000,168.400 105.460,168.400 104.800 C 168.400 104.140,168.220 103.600,168.000 103.600 C 167.780 103.600,167.600 103.240,167.600 102.800 C 167.600 102.360,167.420 102.000,167.200 102.000 C 166.980 102.000,166.800 101.640,166.800 101.200 C 166.800 100.760,166.620 100.400,166.400 100.400 C 166.180 100.400,166.000 100.040,166.000 99.600 C 166.000 99.160,165.820 98.800,165.600 98.800 C 165.380 98.800,165.200 98.480,165.200 98.088 C 165.200 97.697,164.840 97.117,164.400 96.800 C 163.960 96.483,163.600 96.015,163.600 95.760 C 163.600 95.505,162.885 94.600,162.011 93.748 C 159.395 91.199,158.939 90.739,155.620 87.300 C 153.868 85.485,152.234 84.000,151.989 84.000 C 151.179 84.000,134.400 67.558,134.400 66.764 C 134.400 65.922,123.735 55.200,122.898 55.200 C 122.721 55.200,122.317 54.840,122.000 54.400 C 121.683 53.960,121.103 53.600,120.712 53.600 C 120.320 53.600,120.000 53.448,120.000 53.263 C 120.000 53.077,119.145 52.518,118.100 52.019 C 117.055 51.520,115.887 50.952,115.505 50.756 C 115.123 50.560,114.538 50.400,114.205 50.400 C 113.872 50.400,113.600 50.220,113.600 50.000 C 113.600 49.780,112.981 49.600,112.224 49.600 C 111.467 49.600,110.736 49.420,110.600 49.200 C 110.464 48.980,109.564 48.800,108.600 48.800 C 107.636 48.800,106.736 48.620,106.600 48.400 C 106.456 48.167,104.204 48.000,101.200 48.000 C 98.196 48.000,95.944 48.167,95.800 48.400 " stroke="none" fill="#fcb120" fill-rule="evenodd"></path><path id="path2" d="M62.100 171.457 C 60.505 173.050,59.200 174.574,59.200 174.844 C 59.200 175.113,59.109 175.243,58.999 175.132 C 58.683 174.816,32.400 201.148,32.400 201.781 C 32.400 202.091,33.836 203.753,35.592 205.473 C 37.348 207.193,39.553 209.354,40.492 210.275 C 41.431 211.196,43.730 213.571,45.600 215.553 C 47.470 217.536,49.246 219.167,49.546 219.179 C 50.145 219.202,82.800 186.680,82.800 186.061 C 82.800 185.567,67.081 169.783,65.896 169.087 C 65.059 168.595,64.810 168.750,62.100 171.457 M167.260 198.642 C 166.962 198.978,166.799 199.332,166.895 199.429 C 166.992 199.526,167.398 199.244,167.798 198.802 C 168.197 198.361,168.361 198.007,168.162 198.015 C 167.963 198.024,167.557 198.305,167.260 198.642 M148.460 217.442 C 148.162 217.778,147.999 218.132,148.095 218.229 C 148.192 218.326,148.598 218.044,148.998 217.602 C 149.397 217.161,149.561 216.807,149.362 216.815 C 149.163 216.824,148.757 217.105,148.460 217.442 M132.861 233.055 C 132.125 233.825,131.596 234.530,131.687 234.620 C 131.778 234.711,132.552 234.069,133.407 233.193 C 134.263 232.317,134.791 231.612,134.581 231.627 C 134.372 231.643,133.597 232.285,132.861 233.055 M117.260 248.642 C 116.962 248.978,116.799 249.332,116.895 249.429 C 116.992 249.526,117.398 249.244,117.798 248.802 C 118.197 248.361,118.361 248.007,118.162 248.015 C 117.963 248.024,117.557 248.305,117.260 248.642 M199.149 332.664 C 198.647 333.272,198.676 333.281,199.496 332.771 C 200.351 332.238,200.569 332.404,204.288 336.406 C 210.578 343.176,217.286 349.247,217.851 348.683 C 217.959 348.574,216.372 347.135,214.324 345.484 C 210.606 342.489,206.734 338.647,203.051 334.300 C 201.035 331.920,200.091 331.525,199.149 332.664 M186.400 345.400 C 185.883 345.950,185.627 346.394,185.830 346.387 C 186.172 346.376,187.821 344.400,187.488 344.400 C 187.406 344.400,186.917 344.850,186.400 345.400 " stroke="none" fill="#b4dcfb" fill-rule="evenodd"></path><path id="path3" d="M59.402 209.598 C 59.003 210.039,58.807 210.400,58.967 210.400 C 59.388 210.400,60.528 209.195,60.312 208.979 C 60.211 208.878,59.802 209.156,59.402 209.598 M250.219 299.582 L 209.044 340.765 209.822 341.627 C 210.250 342.102,212.284 343.845,214.342 345.502 L 218.085 348.514 259.042 307.558 C 281.569 285.032,300.000 266.460,300.000 266.287 C 300.000 265.821,292.296 258.400,291.811 258.400 C 291.582 258.400,272.866 276.932,250.219 299.582 " stroke="none" fill="#2d8d60" fill-rule="evenodd"></path><path id="path4" d="M304.618 177.117 C 304.463 177.273,302.865 177.528,301.068 177.684 C 297.480 177.996,293.791 178.520,290.400 179.200 C 289.190 179.442,287.524 179.741,286.697 179.863 C 285.871 179.985,285.095 180.245,284.974 180.442 C 284.852 180.639,284.144 180.800,283.400 180.800 C 282.656 180.800,281.936 180.980,281.800 181.200 C 281.664 181.420,280.843 181.600,279.976 181.600 C 279.109 181.600,278.400 181.780,278.400 182.000 C 278.400 182.220,278.098 182.400,277.728 182.400 C 276.976 182.400,274.567 183.113,273.505 183.649 C 273.123 183.842,272.358 184.000,271.805 184.000 C 271.252 184.000,270.800 184.180,270.800 184.400 C 270.800 184.620,270.438 184.800,269.995 184.800 C 269.552 184.800,268.877 184.959,268.495 185.153 C 268.113 185.348,267.260 185.729,266.600 186.000 C 265.940 186.271,265.087 186.652,264.705 186.847 C 264.323 187.041,263.648 187.200,263.205 187.200 C 262.762 187.200,262.400 187.380,262.400 187.600 C 262.400 187.820,261.950 188.000,261.400 188.000 C 260.850 188.000,260.400 188.180,260.400 188.400 C 260.400 188.620,260.130 188.800,259.800 188.800 C 259.470 188.800,259.200 188.980,259.200 189.200 C 259.200 189.420,258.858 189.600,258.441 189.600 C 258.023 189.600,256.655 190.140,255.400 190.800 C 254.145 191.460,252.951 192.000,252.745 192.000 C 252.540 192.000,251.901 192.308,251.326 192.685 C 250.751 193.062,250.021 193.409,249.705 193.455 C 249.389 193.502,248.831 193.778,248.465 194.070 C 247.378 194.937,246.052 195.600,245.405 195.600 C 245.072 195.600,244.800 195.736,244.800 195.902 C 244.800 196.069,244.259 196.444,243.598 196.737 C 242.936 197.030,242.497 197.434,242.621 197.635 C 242.746 197.836,242.477 198.000,242.024 198.000 C 241.571 198.000,241.200 198.180,241.200 198.400 C 241.200 198.620,240.880 198.800,240.488 198.800 C 240.097 198.800,239.517 199.160,239.200 199.600 C 238.883 200.040,238.343 200.400,238.000 200.400 C 237.657 200.400,237.117 200.760,236.800 201.200 C 236.483 201.640,235.943 202.000,235.600 202.000 C 235.257 202.000,234.717 202.360,234.400 202.800 C 234.083 203.240,233.543 203.600,233.200 203.600 C 232.857 203.600,232.317 203.960,232.000 204.400 C 231.683 204.840,231.093 205.200,230.688 205.200 C 230.284 205.200,230.064 205.380,230.200 205.600 C 230.336 205.820,230.206 206.000,229.912 206.000 C 229.617 206.000,229.117 206.360,228.800 206.800 C 228.483 207.240,228.008 207.600,227.745 207.600 C 227.482 207.600,227.207 207.738,227.133 207.907 C 227.060 208.076,226.010 208.929,224.800 209.803 C 223.590 210.677,222.220 211.754,221.755 212.196 C 221.291 212.638,220.504 213.270,220.006 213.600 C 219.509 213.930,217.934 215.325,216.505 216.700 C 215.076 218.075,213.647 219.200,213.330 219.200 C 213.012 219.200,212.843 219.345,212.952 219.523 C 213.062 219.701,212.701 220.184,212.151 220.598 C 210.561 221.792,209.455 222.800,209.735 222.800 C 209.986 222.800,208.641 224.157,206.739 225.822 C 206.223 226.275,205.450 227.119,205.023 227.698 C 204.596 228.278,204.114 228.670,203.952 228.570 C 203.790 228.470,203.539 228.762,203.394 229.218 C 203.249 229.675,202.336 230.843,201.365 231.814 C 200.394 232.785,199.600 233.814,199.600 234.101 C 199.600 234.388,199.240 234.883,198.800 235.200 C 198.360 235.517,198.000 236.007,198.000 236.288 C 198.000 236.570,197.820 236.800,197.600 236.800 C 197.380 236.800,197.200 237.070,197.200 237.400 C 197.200 237.730,197.041 238.000,196.847 238.000 C 196.652 238.000,196.393 238.315,196.271 238.700 C 196.036 239.442,194.757 241.663,194.371 242.000 C 194.245 242.110,193.458 243.640,192.623 245.400 C 191.788 247.160,190.946 248.913,190.752 249.295 C 190.559 249.677,190.400 250.262,190.400 250.595 C 190.400 250.928,190.220 251.200,190.000 251.200 C 189.780 251.200,189.600 251.560,189.600 252.000 C 189.600 252.440,189.420 252.800,189.200 252.800 C 188.980 252.800,188.800 253.340,188.800 254.000 C 188.800 254.660,188.620 255.200,188.400 255.200 C 188.180 255.200,188.000 255.740,188.000 256.400 C 188.000 257.060,187.820 257.600,187.600 257.600 C 187.380 257.600,187.200 258.039,187.200 258.576 C 187.200 259.113,187.020 259.664,186.800 259.800 C 186.580 259.936,186.400 260.656,186.400 261.400 C 186.400 262.144,186.220 262.864,186.000 263.000 C 185.780 263.136,185.600 263.867,185.600 264.624 C 185.600 265.381,185.420 266.000,185.200 266.000 C 184.978 266.000,184.800 267.067,184.800 268.400 C 184.800 269.720,184.631 270.800,184.424 270.800 C 184.218 270.800,183.955 272.825,183.841 275.300 C 183.727 277.775,183.520 281.035,183.381 282.544 C 183.217 284.320,183.282 285.442,183.564 285.724 C 183.825 285.985,184.000 287.895,184.000 290.480 C 184.000 293.093,184.158 294.800,184.400 294.800 C 184.622 294.800,184.800 295.867,184.800 297.200 C 184.800 298.533,184.978 299.600,185.200 299.600 C 185.420 299.600,185.600 300.320,185.600 301.200 C 185.600 302.080,185.780 302.800,186.000 302.800 C 186.220 302.800,186.400 303.430,186.400 304.200 C 186.400 304.970,186.580 305.600,186.800 305.600 C 187.020 305.600,187.200 306.129,187.200 306.776 C 187.200 307.423,187.380 308.064,187.600 308.200 C 187.820 308.336,188.000 308.887,188.000 309.424 C 188.000 309.961,188.180 310.400,188.400 310.400 C 188.620 310.400,188.800 310.940,188.800 311.600 C 188.800 312.260,188.980 312.800,189.200 312.800 C 189.420 312.800,189.600 313.160,189.600 313.600 C 189.600 314.040,189.780 314.400,190.000 314.400 C 190.220 314.400,190.400 314.951,190.400 315.624 C 190.400 316.337,190.567 316.744,190.800 316.600 C 191.027 316.460,191.200 316.796,191.200 317.376 C 191.200 317.939,191.380 318.400,191.600 318.400 C 191.820 318.400,192.000 318.726,192.000 319.124 C 192.000 319.521,192.630 320.893,193.400 322.172 C 194.170 323.451,194.800 324.655,194.800 324.848 C 194.800 325.042,194.980 325.200,195.200 325.200 C 195.420 325.200,195.600 325.425,195.600 325.700 C 195.601 325.975,196.051 326.723,196.600 327.362 C 197.150 328.001,197.600 328.668,197.600 328.844 C 197.600 329.020,198.050 329.614,198.600 330.164 C 199.150 330.714,199.600 331.352,199.600 331.582 C 199.600 331.812,199.938 332.000,200.351 332.000 C 200.773 332.000,201.957 333.008,203.051 334.298 C 204.123 335.562,205.900 337.546,207.000 338.706 L 209.000 340.816 250.197 299.608 C 272.856 276.944,291.582 258.400,291.811 258.400 C 292.296 258.400,300.000 265.821,300.000 266.287 C 300.000 266.460,281.550 285.051,259.000 307.600 C 221.391 345.208,217.148 349.600,218.424 349.600 C 218.657 349.600,218.736 349.780,218.600 350.000 C 218.464 350.220,218.684 350.400,219.088 350.400 C 219.493 350.400,220.083 350.760,220.400 351.200 C 220.717 351.640,221.297 352.000,221.688 352.000 C 222.080 352.000,222.400 352.145,222.400 352.321 C 222.400 352.498,223.297 353.083,224.394 353.621 C 225.490 354.160,226.390 354.735,226.394 354.900 C 226.397 355.065,226.745 355.200,227.167 355.200 C 227.588 355.200,227.993 355.335,228.067 355.500 C 228.140 355.665,229.100 356.225,230.200 356.744 C 231.300 357.263,232.493 357.836,232.851 358.016 C 233.209 358.197,234.154 358.468,234.951 358.617 C 235.748 358.767,236.400 359.049,236.400 359.245 C 236.400 359.440,236.940 359.600,237.600 359.600 C 238.260 359.600,238.800 359.780,238.800 360.000 C 238.800 360.220,239.340 360.400,240.000 360.400 C 240.660 360.400,241.200 360.580,241.200 360.800 C 241.200 361.020,241.740 361.200,242.400 361.200 C 243.060 361.200,243.600 361.380,243.600 361.600 C 243.600 361.820,244.230 362.000,245.000 362.000 C 245.770 362.000,246.400 362.180,246.400 362.400 C 246.400 362.620,247.210 362.800,248.200 362.800 C 249.190 362.800,250.000 362.980,250.000 363.200 C 250.000 363.420,250.990 363.600,252.200 363.600 C 253.410 363.600,254.400 363.780,254.400 364.000 C 254.400 364.244,256.259 364.400,259.176 364.400 C 261.929 364.400,264.058 364.569,264.200 364.800 C 264.336 365.020,265.787 365.200,267.424 365.200 C 269.141 365.200,270.400 365.031,270.400 364.800 C 270.400 364.558,272.133 364.400,274.800 364.400 C 277.467 364.400,279.200 364.242,279.200 364.000 C 279.200 363.778,280.267 363.600,281.600 363.600 C 282.933 363.600,284.000 363.422,284.000 363.200 C 284.000 362.980,284.810 362.800,285.800 362.800 C 286.790 362.800,287.600 362.620,287.600 362.400 C 287.600 362.180,288.219 362.000,288.976 362.000 C 289.733 362.000,290.464 361.820,290.600 361.600 C 290.736 361.380,291.377 361.200,292.024 361.200 C 292.671 361.200,293.200 361.020,293.200 360.800 C 293.200 360.580,293.740 360.400,294.400 360.400 C 295.060 360.400,295.600 360.260,295.600 360.089 C 295.600 359.781,299.788 358.400,300.720 358.400 C 300.984 358.400,301.200 358.220,301.200 358.000 C 301.200 357.780,301.425 357.600,301.700 357.600 C 302.470 357.600,308.800 354.346,308.800 353.950 C 308.800 353.758,309.160 353.600,309.600 353.600 C 310.040 353.600,310.400 353.420,310.400 353.200 C 310.400 352.980,310.636 352.800,310.925 352.800 C 311.213 352.800,311.836 352.440,312.308 352.000 C 312.780 351.560,313.404 351.200,313.695 351.200 C 313.986 351.200,314.483 350.840,314.800 350.400 C 315.117 349.960,315.625 349.600,315.928 349.600 C 316.231 349.600,316.983 349.060,317.600 348.400 C 318.217 347.740,318.930 347.200,319.186 347.200 C 319.442 347.200,320.529 346.300,321.600 345.200 C 322.671 344.100,323.667 343.200,323.813 343.200 C 324.423 343.200,333.200 333.736,333.200 333.079 C 333.200 332.882,333.740 332.217,334.400 331.600 C 335.060 330.983,335.600 330.231,335.600 329.928 C 335.600 329.625,335.960 329.117,336.400 328.800 C 336.840 328.483,337.200 327.903,337.200 327.512 C 337.200 327.120,337.380 326.800,337.600 326.800 C 337.820 326.800,338.000 326.440,338.000 326.000 C 338.000 325.560,338.168 325.200,338.372 325.200 C 338.858 325.200,341.600 319.717,341.600 318.746 C 341.600 318.336,341.780 318.000,342.000 318.000 C 342.220 318.000,342.400 317.550,342.400 317.000 C 342.400 316.450,342.580 316.000,342.800 316.000 C 343.020 316.000,343.200 315.651,343.200 315.224 C 343.200 314.797,343.380 314.336,343.600 314.200 C 343.820 314.064,344.000 313.524,344.000 313.000 C 344.000 312.476,344.180 311.936,344.400 311.800 C 344.620 311.664,344.800 311.113,344.800 310.576 C 344.800 310.039,344.980 309.600,345.200 309.600 C 345.420 309.600,345.600 308.970,345.600 308.200 C 345.600 307.430,345.780 306.800,346.000 306.800 C 346.220 306.800,346.400 306.080,346.400 305.200 C 346.400 304.320,346.580 303.600,346.800 303.600 C 347.020 303.600,347.200 302.880,347.200 302.000 C 347.200 301.120,347.380 300.400,347.600 300.400 C 347.820 300.400,348.000 299.716,348.000 298.880 C 348.000 298.044,348.163 297.189,348.361 296.980 C 348.560 296.771,348.833 295.700,348.969 294.600 C 349.583 289.628,349.699 288.978,350.039 288.620 C 350.237 288.411,350.400 287.286,350.400 286.120 C 350.400 284.954,350.580 284.000,350.800 284.000 C 351.020 284.000,351.200 283.010,351.200 281.800 C 351.200 280.590,351.380 279.600,351.600 279.600 C 351.820 279.600,352.000 278.826,352.000 277.880 C 352.000 276.934,352.162 275.989,352.359 275.780 C 352.556 275.571,352.812 274.680,352.926 273.800 C 353.041 272.920,353.344 271.390,353.600 270.400 C 353.856 269.410,354.160 267.924,354.275 267.097 C 354.390 266.271,354.645 265.495,354.842 265.374 C 355.039 265.252,355.200 264.711,355.200 264.171 C 355.200 263.631,355.362 262.877,355.561 262.495 C 355.760 262.113,356.141 260.990,356.408 260.000 C 356.676 259.010,356.990 257.930,357.107 257.600 C 357.224 257.270,357.387 256.654,357.468 256.231 C 357.549 255.809,357.781 255.264,357.982 255.021 C 358.184 254.779,358.473 253.640,358.626 252.490 C 358.778 251.341,359.060 250.400,359.252 250.400 C 359.443 250.400,359.600 250.051,359.600 249.624 C 359.600 249.197,359.780 248.736,360.000 248.600 C 360.220 248.464,360.400 247.913,360.400 247.376 C 360.400 246.839,360.580 246.400,360.800 246.400 C 361.020 246.400,361.200 246.040,361.200 245.600 C 361.200 245.160,361.380 244.800,361.600 244.800 C 361.820 244.800,362.000 244.339,362.000 243.776 C 362.000 243.196,362.173 242.860,362.400 243.000 C 362.627 243.140,362.800 242.804,362.800 242.224 C 362.800 241.661,362.980 241.200,363.200 241.200 C 363.420 241.200,363.600 240.840,363.600 240.400 C 363.600 239.960,363.780 239.600,364.000 239.600 C 364.220 239.600,364.400 239.240,364.400 238.800 C 364.400 238.360,364.580 238.000,364.800 238.000 C 365.020 238.000,365.200 237.640,365.200 237.200 C 365.200 236.760,365.380 236.400,365.600 236.400 C 365.820 236.400,366.000 236.040,366.000 235.600 C 366.000 235.160,366.152 234.800,366.337 234.800 C 366.523 234.800,367.105 233.945,367.632 232.900 C 368.158 231.855,368.682 230.910,368.795 230.800 C 368.909 230.690,369.256 230.105,369.568 229.500 C 369.880 228.895,370.285 228.400,370.468 228.400 C 370.650 228.400,370.800 228.080,370.800 227.688 C 370.800 227.297,371.160 226.717,371.600 226.400 C 372.040 226.083,372.404 225.638,372.409 225.412 C 372.414 225.185,373.044 224.305,373.809 223.456 C 374.574 222.607,375.200 221.755,375.200 221.563 C 375.200 221.371,376.010 220.369,377.000 219.335 C 377.990 218.302,378.800 217.311,378.800 217.133 C 378.800 216.679,387.126 208.400,387.583 208.400 C 388.957 208.400,400.000 196.350,400.000 194.851 C 400.000 193.342,399.945 193.277,398.500 193.088 C 397.675 192.980,396.010 192.584,394.800 192.208 C 393.590 191.832,392.105 191.430,391.500 191.316 C 390.895 191.202,390.400 190.950,390.400 190.755 C 390.400 190.560,389.860 190.400,389.200 190.400 C 388.540 190.400,388.000 190.220,388.000 190.000 C 388.000 189.780,387.460 189.600,386.800 189.600 C 386.140 189.600,385.600 189.420,385.600 189.200 C 385.600 188.980,385.060 188.800,384.400 188.800 C 383.740 188.800,383.200 188.620,383.200 188.400 C 383.200 188.180,382.660 188.000,382.000 188.000 C 381.340 188.000,380.800 187.820,380.800 187.600 C 380.800 187.380,380.260 187.200,379.600 187.200 C 378.940 187.200,378.400 187.020,378.400 186.800 C 378.400 186.580,377.860 186.400,377.200 186.400 C 376.540 186.400,376.000 186.220,376.000 186.000 C 376.000 185.780,375.381 185.600,374.624 185.600 C 373.867 185.600,373.136 185.420,373.000 185.200 C 372.864 184.980,372.324 184.800,371.800 184.800 C 371.276 184.800,370.736 184.620,370.600 184.400 C 370.464 184.180,369.834 184.000,369.200 184.000 C 368.566 184.000,367.936 183.820,367.800 183.600 C 367.664 183.380,366.944 183.200,366.200 183.200 C 365.456 183.200,364.736 183.020,364.600 182.800 C 364.464 182.580,363.633 182.400,362.753 182.400 C 361.788 182.400,361.251 182.241,361.400 182.000 C 361.548 181.760,361.031 181.600,360.104 181.600 C 359.255 181.600,358.389 181.438,358.180 181.241 C 357.827 180.908,357.016 180.752,352.500 180.147 C 351.565 180.022,350.800 179.774,350.800 179.595 C 350.800 179.417,349.765 179.172,348.500 179.051 C 347.235 178.930,344.850 178.635,343.200 178.395 C 341.550 178.154,338.850 177.862,337.200 177.744 C 335.550 177.627,334.014 177.377,333.787 177.189 C 333.293 176.779,305.023 176.709,304.618 177.117 " stroke="none" fill="#64bc04" fill-rule="evenodd"></path>
  </g>
</svg>